<mxfile host="app.diagrams.net" modified="2022-06-03T01:46:03.015Z" agent="5.0 (X11)" etag="EpMIOr0FUaPaCx8qvqpI" version="18.0.0" type="github">
  <diagram id="P5Y-tK5-IYwQYBq6LNEr" name="Page-1">
    <mxGraphModel dx="1694" dy="896" grid="1" gridSize="10" guides="1" tooltips="1" connect="1" arrows="1" fold="1" page="1" pageScale="1" pageWidth="850" pageHeight="1100" math="0" shadow="0">
      <root>
        <mxCell id="0" />
        <mxCell id="1" parent="0" />
        <mxCell id="pHUDSzycSXPffVPseBhs-1" value="" style="ellipse;whiteSpace=wrap;html=1;" vertex="1" parent="1">
          <mxGeometry x="360" y="420" width="120" height="80" as="geometry" />
        </mxCell>
        <mxCell id="pHUDSzycSXPffVPseBhs-3" style="edgeStyle=orthogonalEdgeStyle;rounded=0;orthogonalLoop=1;jettySize=auto;html=1;" edge="1" parent="1" source="pHUDSzycSXPffVPseBhs-2" target="pHUDSzycSXPffVPseBhs-1">
          <mxGeometry relative="1" as="geometry" />
        </mxCell>
        <mxCell id="pHUDSzycSXPffVPseBhs-2" value="" style="shape=process;whiteSpace=wrap;html=1;backgroundOutline=1;" vertex="1" parent="1">
          <mxGeometry x="305" y="570" width="120" height="60" as="geometry" />
        </mxCell>
      </root>
    </mxGraphModel>
  </diagram>
</mxfile>
